<svg width="250" height="250" viewBox="0 0 250 250" fill="none" xmlns="http://www.w3.org/2000/svg">
<path fill-rule="evenodd" clip-rule="evenodd" d="M114.891 26.9774C120.722 22.0297 129.278 22.0297 135.109 26.9774L213.234 93.2653C216.733 96.234 218.75 100.591 218.75 105.179V203.125C218.75 211.754 211.754 218.75 203.125 218.75H143.229C138.914 218.75 135.417 215.252 135.417 210.937V145.833H114.583V210.937C114.583 215.252 111.086 218.75 106.771 218.75H46.875C38.2455 218.75 31.25 211.754 31.25 203.125V105.179C31.25 100.591 33.2671 96.2341 36.766 93.2653L114.891 26.9774ZM125 38.8916L46.875 105.179L46.875 203.125H98.9583V138.021C98.9583 133.706 102.456 130.208 106.771 130.208H143.229C147.544 130.208 151.042 133.706 151.042 138.021V203.125H203.125V105.179L125 38.8916Z" fill="#4B84F1"/>
</svg>
