<svg width="250" height="250" viewBox="0 0 250 250" fill="none" xmlns="http://www.w3.org/2000/svg">
<path fill-rule="evenodd" clip-rule="evenodd" d="M0 49.4792C0 39.4115 8.16148 31.25 18.2292 31.25H231.771C241.839 31.25 250 39.4115 250 49.4792V200.521C250 210.589 241.839 218.75 231.771 218.75H18.2292C8.16148 218.75 0 210.589 0 200.521V49.4792ZM18.2292 46.875C16.7909 46.875 15.625 48.0409 15.625 49.4792V200.521C15.625 201.959 16.7909 203.125 18.2292 203.125H231.771C233.209 203.125 234.375 201.959 234.375 200.521V49.4792C234.375 48.0409 233.209 46.875 231.771 46.875H18.2292Z" fill="#1060AF"/>
<path fill-rule="evenodd" clip-rule="evenodd" d="M52.0833 91.1458C52.0833 86.8311 55.5811 83.3333 59.8958 83.3333H179.688C184.002 83.3333 187.5 86.8311 187.5 91.1458C187.5 95.4606 184.002 98.9583 179.688 98.9583H59.8958C55.5811 98.9583 52.0833 95.4606 52.0833 91.1458Z" fill="#1060AF"/>
<path fill-rule="evenodd" clip-rule="evenodd" d="M52.0833 132.812C52.0833 128.498 55.5811 125 59.8958 125H117.188C121.502 125 125 128.498 125 132.812C125 137.127 121.502 140.625 117.188 140.625H59.8958C55.5811 140.625 52.0833 137.127 52.0833 132.812Z" fill="#1060AF"/>
</svg>
